<?xml version="1.0" encoding="UTF-8"?>
<svg xmlns="http://www.w3.org/2000/svg" version="1.1" viewBox="0 0 1000 1000">
  <defs>
    <style>
      .cls-1 {
        fill: #f0624b;
      }

      .cls-2 {
        fill: #fa6149;
      }

      .cls-3 {
        fill: #f1634c;
      }

      .cls-4 {
        fill: #142240;
        stroke: #000;
        stroke-miterlimit: 10;
      }

      .cls-5 {
        fill: #fff;
        font-family: Oswald-Regular, Oswald;
        font-size: 100px;
      }
    </style>
  </defs>
  <!-- Generator: Adobe Illustrator 28.6.0, SVG Export Plug-In . SVG Version: 1.2.0 Build 709)  -->
  <g>
    <g id="Layer_1">
      <rect class="cls-4" x="-49.8" y="-24.1" width="1127" height="1061.2"/>
      <path class="cls-2" d="M682,457.6c4.5-10,6.1-20.5,4.1-27.2s-4.4-10-3.2-15.2,19.5-10.5,27.2-12.6c12.5-3.4,23.4-5.9,33.2-6.6,4.6-.3,5.9,2.2,2.9,4.5-4.7,3.6-14.9,11.6-26.1,19-17,11.2-13.8,26-38.1,38.1ZM663.8,440.8c-1.3,10.3-13.6,30.9-13.6,30.9,0,0-.9-3.5-1.5-5.5s-2.1-2.4-2.1-2.4c0,0-4.7,18.3-10.4,22.8-12.7,9.8-20.7,5.8-33.3,33.4-2.6,5.7-.5,18-2.3,20.7,1,3,2,8.4,0,15.8-6.2-1.9-18-3-18-3,0,0,8.9,4.5,14.7,7.4-.5,3-8.9,20.9-11.1,22.8-9.4-3.6-20.9-5.8-20.9-5.8,0,0,8.2,5.1,17.1,10.3-1.4,3.4-12.6,17.1-15.2,18.5-7.8-6.8-18.5-10.7-18.5-10.7,0,0,5.7,5.8,15.8,14.8-11,8.6-24.6,5.9-35,3.8-1.1-.2-4.7-7.2-4.7-7.2,0,0-3,6.9-10.3,1.9-4.6-3.2-8.8-9.2-8.6-15.4.3-6.7,5.4-15.2,21.5-24,9.8-5.3,14.4-17,13.8-30.5.6-4.1,3.7-25.4,5.6-35.1,2.4-12,7.9-35.5,18.3-50,8.7-11.9,21.2-17.7,43.4-25,24.6-8.1,39.8-8.6,52.7-9.9,0-.2,4.1,7.7,2.5,21.4ZM611.1,462c6.1-6.5,8.3-14.4,8.3-14.4,0,0-20.2,4.3-28.5,5.6-14.5,2.3-16.1,5.9-21.2,12.8-3.9,5.3-4.4,9.2-2.8,17.7.5,2.6,2.3,3.8,3.7,6.7,1.7,3.2,2.1,9.1,3.2,9,1.6-.2,7.6-6.3,14.2-8.2,11.6-3.2,14.3-19.9,23.1-29.1ZM584.1,490c-5.7,0-10.3-5.3-10.3-11.8s4.7-10.6,10.3-11.8c10.3-2.4,9.1,4.4,10.3,11.8,1.1,6.4-4.6,11.8-10.3,11.8ZM583,481.3c0-.5-.4-.9-.9-.9s-.9.4-.9.9.4.9.9.9.9-.4.9-.9ZM586.9,481.4c0-.8-.5-1.4-1-1.4s-1,.6-1,1.4.5,1.4,1,1.4,1-.6,1-1.4ZM586.9,477.3c0-1.7-1.1-3.1-2.5-3.1s-2.5,1.4-2.5,3.1,1.1,3.1,2.5,3.1c1.4,0,2.5-1.5,2.5-3.1ZM318.9,457.6c-4.5-10-6.1-20.5-4.1-27.2,2.1-6.7,4.4-10,3.2-15.2s-19.5-10.5-27.2-12.6c-12.5-3.4-23.4-5.9-33.2-6.6-4.6-.3-5.9,2.2-2.9,4.5,4.7,3.6,14.9,11.6,26.1,19,17,11.2,13.9,26,38.1,38.1ZM339.7,419.2c12.9,1.4,28.1,1.8,52.7,9.9,22.2,7.3,34.7,13,43.4,25,10.4,14.5,16,37.9,18.3,50,1.9,9.8,4.9,31.1,5.6,35.1-.6,13.6,3.9,25.3,13.8,30.5,16.1,8.8,21.2,17.3,21.5,24,.3,6.3-4,12.3-8.6,15.4-7.3,5-10.3-1.9-10.3-1.9,0,0-3.6,6.9-4.7,7.2-10.3,2.1-23.9,4.7-35-3.8,10.1-8.9,15.8-14.8,15.8-14.8,0,0-10.7,3.8-18.5,10.7-2.7-1.5-14-15.1-15.2-18.5,8.9-5.1,17.1-10.3,17.1-10.3,0,0-11.5,2.3-20.9,5.8-2.2-1.8-10.6-19.7-11.1-22.8,5.7-2.9,14.7-7.4,14.7-7.4,0,0-11.8,1.1-18,3-1.9-7.4-.9-12.8,0-15.8-1.8-2.6.4-14.9-2.3-20.7-12.6-27.5-20.6-23.6-33.3-33.4-5.7-4.5-10.4-22.8-10.4-22.8,0,0-1.5.4-2.1,2.4s-1.5,5.5-1.5,5.5c0,0-12.3-20.6-13.6-30.9-1.8-13.6,2.5-21.4,2.5-21.4ZM412.9,491.1c6.7,1.9,12.7,8,14.2,8.2,1.1,0,1.5-5.8,3.2-9,1.6-2.8,3.3-4.1,3.7-6.7,1.6-8.6,1.1-12.4-2.8-17.7-5-6.8-6.7-10.6-21.2-12.8-8.3-1.3-28.5-5.6-28.5-5.6,0,0,2.2,8,8.3,14.4,8.8,9.2,11.6,25.9,23.1,29.1ZM406.5,478.2c1.2-7.4,0-14.1,10.3-11.8,5.6,1.3,10.3,5.3,10.3,11.8s-4.7,11.8-10.3,11.8c-5.7,0-11.3-5.3-10.3-11.8ZM418.8,482.2c.5,0,.9-.4.9-.9s-.4-.9-.9-.9-.9.4-.9.9.5.9.9.9ZM415.1,482.8c.5,0,1-.6,1-1.4s-.5-1.4-1-1.4-1,.6-1,1.4c0,.7.4,1.4,1,1.4ZM416.5,480.4c1.4,0,2.5-1.4,2.5-3.1s-1.1-3.1-2.5-3.1-2.5,1.4-2.5,3.1c0,1.7,1.1,3.1,2.5,3.1ZM532.1,540.6c-2.7-4.4-8.3-5.4-16.4-6.1-7.5-.6-15.2-.5-15.2-.5,0,0-7.8,0-15.2.5-8.2.6-13.7,1.6-16.4,6.1-3.2,5-4.7,15.8,13.4,27.7.9.6,1.5-1.9-1.3-4.6-4.3-4.1-6.5-17.4-3.8-16.7,6.5,1.8,13.4,13.4,10.7,22-.7,2.3,4.6,6.4,6.8,7.3,3.6,1.5,5.8,1.5,5.8,1.5,0,0,2.2,0,5.8-1.5,2.3-.9,7.6-5,6.8-7.3-2.7-8.6,4.2-20.2,10.7-22,2.6-.7.5,12.6-3.8,16.7-2.7,2.6-2.2,5.1-1.3,4.6,18.1-11.9,16.6-22.7,13.4-27.7ZM738.5,426.6c1.2,11.8-1.2,23-3.4,24.6,0-4-1.1-7-2.3-9.3-1.7-3.4-3.9-4.8-3.9-4.8,0,0,2.4,10-.4,40-1.7,19-13.3,38.1-13.3,38.1,0,0,.4-7.8-2.7-17.2-2.6-8-8.6-13.2-8.6-13.2,0,0,4.8,16.7,5.5,23.8,5.1,53.7-37,82-37,82,0,0,1-6.5-1.3-18.1-1.7-9-7.9-14.2-7.9-14.2,3.1,6.5,5.2,21.4.6,30.8-3.9,8.2-9,11.8-17.6,20.2-9.4,9.4-30.7,18.2-30.7,18.2,0,0,1.3-12.2-.5-14.6.2,2.5-5.7,16.8-12.7,20.2-6.5,3.1-15.9,10.1-20.4,18.1.8-7.8,1.6-14.7,2.7-20.9-9.7,13.8-25.2,34.1-40.9,44.2,1.1-9.5,3.5-14.9,0-21.6-1.9,17.6-21.7,34.5-21.7,34.5,0,0,4.2-19.1,2.2-28.7-14,38.3-23.9,45.2-23.9,45.2,0,0-9.8-7-23.8-45.3-2,9.7,2.2,28.7,2.2,28.7,0,0-19.8-16.9-21.7-34.5-3.5,6.7-1.1,12.1,0,21.6-15.7-10.1-31.2-30.5-40.9-44.2,1.2,6.2,1.9,13.2,2.7,20.9-4.5-8-13.9-15-20.4-18.1-7.1-3.4-12.9-17.7-12.7-20.2-1.7,2.4-.5,14.6-.5,14.6,0,0-21.3-8.8-30.7-18.2-8.6-8.5-13.7-12-17.6-20.2-4.5-9.5-2.5-24.3.6-30.8,0,0-6.2,5.2-7.9,14.2-2.3,11.7-1.3,18.1-1.3,18.1,0,0-42.1-28.3-37-82,.6-7.1,5.5-23.8,5.5-23.8,0,0-5.9,5.3-8.6,13.2-3.1,9.5-2.7,17.2-2.7,17.2,0,0-11.7-19.2-13.3-38.1-2.7-30-.4-40-.4-40,0,0-2.2,1.5-3.9,4.8-1.2,2.4-2.2,5.4-2.3,9.3-2.2-1.6-4.7-12.9-3.4-24.6.9-8.8,3.7-10.5,3.7-10.5,0,0,14,7.6,21.1,20.2,13.8,25.1,34.8,29.8,40.8,31.7.7-5.4-9.4-22.9-7.1-35.3,2-10.9,8.6-11.4,2.9-21.5-3.5-6.1-17.7-11-30.8-14.4-3.3-.7-9.7-2.1-11.8-2.6-8.1-1.8-13.2-2.1-17.2-7.2-3.6-4.6-2.7-9.2-2.7-9.2,0,0,7.9,3.4,16.2-2,10.7-6.8-2.3-18.4,16-34.8,11.3-10.1,26.2-8,26.2-8,0,0-9-5.9-19.5-5.4-9.8.5-17.1,2.4-27.6,15.1,5.6-25.7,18.1-34.8,31.1-41.8,12.1-6.5,31.6-8.5,44.8-7.4,0,0-4.9-6.6-13.8-9.4-12-3.9-19.9-2.8-25.9-.6,4.5-8.7,20.6-16.6,42.8-18,26.2-1.6,48.1,7.6,48.1,7.6,0,0,1.5-4.5-7.3-9.8-10.9-6.6-25.2-7.6-31-5.6,3.8-4.9,20.2-13.1,49.9-8.6,18.2,2.8,26.2,6.1,26.2,6.1,0,0-.3-5.1-4.7-8.6-4.1-3.3-9.4-4.8-14-5.6,2.9-2.2,19.9-3.9,36.4-5.1,20.8-1.5,45.1-1.6,45.1-1.6,0,0,24.3,0,45.1,1.6,16.5,1.2,33.5,2.9,36.4,5.1-4.6.7-9.8,2.3-13.9,5.6-4.4,3.5-4.7,8.6-4.7,8.6,0,0,7.9-3.3,26.2-6.1,29.7-4.7,46.1,3.6,49.9,8.6-5.9-2-20.1-1-31,5.6-8.8,5.3-7.3,9.8-7.3,9.8,0,0,22-9.2,48.1-7.6,22.1,1.4,38.3,9.3,42.8,18-6.1-2.2-14-3.3-25.9.6-8.8,2.9-13.8,9.4-13.8,9.4,13.1-1.1,32.6.9,44.8,7.4,13,6.9,25.5,16,31.1,41.8-10.5-12.7-17.9-14.7-27.6-15.1-10.5-.5-19.5,5.4-19.5,5.4,0,0,14.9-2.1,26.2,8,18.3,16.4,5.4,27.9,16,34.8,8.3,5.4,16.2,2,16.2,2,0,0,.9,4.7-2.7,9.2-4,5-9.1,5.4-17.2,7.2-2.1.5-8.6,1.9-11.8,2.6-13.1,3.4-27.4,8.2-30.8,14.4-5.7,10.2.9,10.8,2.9,21.5,2.3,12.4-7.9,29.9-7.1,35.3,5.9-1.9,27-6.7,40.8-31.7,7-12.7,21.1-20.2,21.1-20.2,0,0,3,1.7,3.9,10.6ZM533.2,357.4h.5c1.9-8,3.5-15.9,5.2-23.7,1.8-7.8,2.9-15.8,5.4-23.3,2.3-7.7,5.7-14.8,10.2-21.5,4.4-6.7,9.7-12.9,15.8-18.2l-.3-.5c-6.7,4.8-12.4,10.7-17.6,17.1-5,6.6-9.2,13.9-12,21.6-2.9,7.8-5.5,15.7-6.6,23.8-1.1,8.2-1.6,16.4-.6,24.7ZM517.4,472.1h.5c3.5-15,7.4-29.8,12.1-44.3,4.7-14.5,9.8-28.9,16.9-42.5,7.2-13.4,16.7-25.5,27.5-36.3,10.8-10.9,22.8-20.7,35.7-29l-.3-.5c-13.4,7.7-25.9,17.1-37.3,27.5-11.4,10.6-21.5,22.6-29.4,36.2-7.7,13.6-14,28-18.2,43-2.1,7.5-3.9,15-5.1,22.7-1.4,7.7-2.3,15.4-2.6,23.2ZM430.7,270.6c6.1,5.3,11.3,11.6,15.8,18.2s7.9,13.9,10.2,21.5c2.4,7.7,3.6,15.6,5.4,23.3,1.7,7.8,3.3,15.8,5.2,23.7h.5c1-8.2.5-16.5-.5-24.6-1.1-8.2-3.6-16-6.6-23.8-2.8-7.8-7-15.1-12-21.6-5.1-6.5-10.9-12.3-17.6-17.1l-.4.4ZM390.8,319.9c12.9,8.3,25,18.1,35.7,29,10.9,10.8,20.3,23,27.5,36.3,7,13.6,12.1,28,16.9,42.5s8.8,29.4,12.1,44.4h.5c-.3-7.8-1.2-15.6-2.5-23.3-1.3-7.7-3.1-15.2-5.1-22.7-4.2-15-10.6-29.4-18.2-43-7.9-13.6-18.1-25.6-29.4-36.2-11.4-10.5-23.9-19.8-37.3-27.5l-.4.5ZM334.1,359.9c9.8,2.3,19.5,5.7,28.3,10.7,8.8,4.7,16.2,11.6,23.8,18.3,7.5,6.7,14.7,14,21.9,21.3l.5-.3c-2.5-4.6-5.3-8.9-8.5-13-3.1-4.2-6.6-8.1-10.2-11.8-7.3-7.5-16-13.6-25.5-18.1-9.4-4.7-19.4-7.8-29.6-9.5-10.2-1.6-20.6-2.2-30.9-1.1v.5c10.2-.6,20.4.6,30.4,2.9ZM520.4,634.4c-3.4,1-6.7,1-9.9,1.2-3.3,0-6.6,0-9.9,0h0c-3.3,0-6.6,0-9.9,0-3.3-.2-6.6-.2-9.9-1.2,1.1,1.5,2.7,2.5,4.3,3.3,1.6.7,3.3,1.5,5,1.8,3.5.9,7,1.3,10.5,1.3h0c3.5,0,7-.4,10.5-1.3,1.7-.5,3.5-1.1,5-1.8,1.7-.8,3.4-1.8,4.5-3.3ZM666.4,413.1c-14.9.2-23.1,1-38.6,3.9-23,4.3-32.1,8.5-49.2,16.1-16.1,7.2-26.5,20.2-31.3,39-.8,3.4-1.7,7.1-2.6,11,0,0,0,.2,0,.3-.2.8-.4,1.7-.5,2.6,0,.2,0,.5,0,.6-.2.8-.4,1.6-.5,2.4,0,.2,0,.3,0,.5-.2,1-.4,1.9-.6,2.9,0,0,0,.3,0,.4-.2.9-.4,1.7-.5,2.6-3.9,19.2-7.3,38.7-7.3,38.7,0,0-1.7-2-4.5-2.9,2.6-18-.5-31.7-.5-31.7,0,0-2.3,28-4,30.6-3.2-.5-4.9-.4-7.9-.6-3.5-.3-5.7-.2-8.8-.4.4-4.3-1.3-7.6-1.3-7.6,0,0-1.4,7.5-1.9,7.5-2.6,0-5.4,0-5.4,0h0s-2.8,0-5.4,0-1.9-7.5-1.9-7.5c0,0-1.7,3.2-1.3,7.6-3,.2-5.3.2-8.8.4-3.1.2-4.8,0-7.9.6-1.7-2.6-4-30.6-4-30.6,0,0-3.2,13.8-.5,31.7-2.7.9-4.5,2.9-4.5,2.9,0,0-3.4-19.4-7.3-38.7-.2-.9-.4-1.8-.5-2.6,0,0,0-.3,0-.4-.2-1-.4-1.9-.6-2.9,0-.2,0-.3,0-.5-.2-.8-.4-1.6-.5-2.4,0-.2,0-.5,0-.6-.2-.8-.4-1.7-.5-2.6,0,0,0-.2,0-.3-.9-3.9-1.7-7.8-2.6-11-4.7-18.9-15.2-31.8-31.3-39-17.1-7.7-26.2-11.9-49.2-16.1-15.5-2.8-23.7-3.6-38.6-3.9-8.2,20.5-3.8,40.2,9.7,60.4,5.7,8.6,7.6,16.7,14.9,24.8,1.5,1.6,14.8,5.6,17.4,7.9,2.6,2.4,16.8,36.5,15.7,47.4.4,1.5.8,3.1,1.3,4.7-3.6,1-10.9,3.2-18.1,5.6-17.3,5.8-34.1,14.1-33.3,14.3,0,0,20.3-5.7,32.4-9.4,9.2-2.8,16.6-4.5,20.6-5.3,2.3,7.4,5.4,15.7,9.4,23.4-1.7.7-3.8,1.6-6.6,2.8-11.8,5.2-28.5,16.6-28.5,16.6,0,0,13.9-5.5,30.2-11.1,3.2-1.1,5.8-2,8-2.6,2,3.3,4.1,6.4,6.5,9.1,2.3,2.6,5.7,6.9,10.4,11.6-1.4.9-2.7,1.8-3.6,2.6-3.8,2.9-15.4,14-15.4,14,0,0,11.9-6.5,16.3-9.2,2.3-1.4,4.5-2.8,6.3-4,5.2,4.5,11.8,9.1,20.2,12.8,10.8,4.7,18.4-3.2,28.2-6.9,10.2-3.9,18.1-6.8,18.1-6.8l6.2-.6,6.2.6s7.8,2.9,18.1,6.8c9.7,3.7,17.3,11.6,28.2,6.9,8.5-3.7,15-8.3,20.2-12.8,1.9,1.2,4.1,2.6,6.3,4,4.5,2.7,16.3,9.2,16.3,9.2,0,0-11.7-11-15.4-14-.9-.7-2.3-1.6-3.6-2.6,4.7-4.7,8.1-8.9,10.4-11.6,2.4-2.7,4.5-5.8,6.5-9.1,2.2.7,4.8,1.6,8,2.6,16.3,5.7,30.2,11.1,30.2,11.1,0,0-16.8-11.5-28.5-16.6-2.7-1.2-4.8-2.1-6.6-2.8,4-7.8,7.1-16.1,9.4-23.4,4,.7,11.4,2.4,20.6,5.3,12,3.7,32.4,9.4,32.4,9.4.8-.2-16-8.5-33.3-14.3-7.2-2.5-14.5-4.6-18.1-5.6.5-1.6.9-3.3,1.3-4.7-1.1-10.9,13-45.1,15.7-47.4,2.6-2.4,16-6.4,17.4-7.9,7.3-8.1,9.1-16.2,14.9-24.8,12.9-20.2,17.3-39.8,9.1-60.4ZM697.2,356.7v-.5c-10.2-1.1-20.5-.5-30.8,1.1-10.2,1.8-20.2,4.8-29.6,9.5s-18.2,10.7-25.5,18.1c-3.6,3.7-7.1,7.7-10.2,11.8-3.2,4.1-6,8.5-8.5,13l.5.3c7.2-7.4,14.3-14.6,21.9-21.3,7.6-6.7,15-13.5,23.8-18.3,8.8-4.9,18.3-8.4,28.3-10.7,9.8-2,20.1-3.3,30.3-2.9Z"/>
      <g>
        <path class="cls-3" d="M148.8,854.4c-6.1,0-10.9-1.3-14.5-3.8s-6.1-6.2-7.7-10.9c-1.6-4.7-2.3-10.2-2.3-16.4v-30.2c0-6.5.8-12,2.4-16.7s4.3-8.3,8.2-10.8c3.9-2.6,9.2-3.7,15.9-3.7s11.6,1.1,15.3,3.2c3.7,2.2,6.5,5.2,8,9.1,1.6,3.9,2.5,8.6,2.5,14v5.2h-17.9v-6.4c0-2.4-.2-4.5-.5-6.3s-1-3.3-2.1-4.3c-1.1-1-2.8-1.6-5.2-1.6s-4.2.6-5.4,1.9c-1.1,1.3-1.8,2.9-2.1,4.8-.3,2-.5,4.1-.5,6.3v39.9c0,2.6.2,4.7.6,6.7s1.3,3.6,2.5,4.7c1.2,1.1,3,1.6,5.3,1.6s4.1-.6,5.4-1.8,2.1-2.8,2.6-4.8c.5-2,.7-4.4.7-6.9v-9.6h-8.8v-11.1h25.4v46.3h-12l-1.1-8.1c-1.2,2.7-3,5-5.4,6.7-2.4,1.9-5.6,2.8-9.6,2.8Z"/>
        <path class="cls-3" d="M214.6,854.2c-6.6,0-11.9-1.2-15.7-3.6-3.8-2.4-6.7-5.7-8.3-10.2-1.6-4.4-2.5-9.7-2.5-15.9v-33.6c0-6.2.8-11.4,2.5-15.8s4.5-7.8,8.3-10c3.8-2.3,9.1-3.5,15.7-3.5s11.9,1.2,15.9,3.5,6.7,5.7,8.4,10c1.6,4.4,2.5,9.6,2.5,15.8v33.6c0,6.2-.8,11.5-2.5,15.9-1.6,4.4-4.5,7.8-8.4,10.2-3.9,2.4-9.2,3.6-15.9,3.6ZM214.6,841c2.4,0,4.1-.5,5.2-1.6s1.8-2.6,2.2-4.4.5-3.7.5-5.8v-42.6c0-2.1-.2-4-.5-5.7-.4-1.8-1.1-3.2-2.2-4.3s-2.8-1.6-5.2-1.6-3.9.5-5,1.6-1.8,2.5-2.2,4.3-.5,3.7-.5,5.7v42.6c0,2.1.2,4,.5,5.8.4,1.8,1.1,3.3,2.2,4.4,1.1,1.1,2.7,1.6,5.1,1.6Z"/>
        <path class="cls-3" d="M253.6,853v-90.1h22.1c7.7,0,13.6,1,17.9,2.9,4.3,2,7.3,5,9,9.2,1.8,4.2,2.6,9.6,2.6,16v32.8c0,6.7-.9,12.1-2.6,16.5-1.8,4.3-4.7,7.5-8.9,9.5-4.2,2-10,3.1-17.5,3.1h-22.5ZM271.9,840.3h3.9c3.4,0,5.8-.5,7.3-1.6s2.4-2.6,2.7-4.7.5-4.7.5-7.8v-37.2c0-3.1-.3-5.7-.7-7.5-.5-1.9-1.5-3.3-2.9-4.2s-3.8-1.4-7-1.4h-3.7v64.5h0Z"/>
        <path class="cls-3" d="M342.5,854.2c-6.6,0-11.9-1.2-15.7-3.6-3.8-2.4-6.7-5.7-8.3-10.2-1.6-4.4-2.5-9.7-2.5-15.9v-33.6c0-6.2.8-11.4,2.5-15.8,1.6-4.4,4.5-7.8,8.3-10s9.1-3.5,15.7-3.5,11.9,1.2,15.9,3.5,6.7,5.7,8.4,10c1.6,4.4,2.5,9.6,2.5,15.8v33.6c0,6.2-.8,11.5-2.5,15.9-1.6,4.4-4.5,7.8-8.4,10.2-3.9,2.4-9.2,3.6-15.9,3.6ZM342.5,841c2.4,0,4.1-.5,5.2-1.6s1.8-2.6,2.2-4.4.5-3.7.5-5.8v-42.6c0-2.1-.2-4-.5-5.7-.4-1.8-1.1-3.2-2.2-4.3-1.1-1.1-2.8-1.6-5.2-1.6s-3.9.5-5,1.6-1.8,2.5-2.2,4.3-.5,3.7-.5,5.7v42.6c0,2.1.2,4,.5,5.8.4,1.8,1.1,3.3,2.2,4.4,1.1,1.1,2.8,1.6,5.1,1.6Z"/>
        <path class="cls-3" d="M389.2,853v-76.4h-14v-13.7h46.1v13.7h-13.7v76.4h-18.4Z"/>
        <path class="cls-3" d="M465.4,853l-11.7-90.1h15.6l6.2,55.1,7.9-55h12.3l8.2,54.9,6.2-55h15.3l-11.6,90.1h-15.6l-8.8-57.1-8.4,57.1h-15.8Z"/>
        <path class="cls-3" d="M535.5,853v-90.1h18.2v90.1h-18.2Z"/>
        <path class="cls-3" d="M567.6,853v-90.1h18.3v77.7h21.2v12.5h-39.5Z"/>
        <path class="cls-3" d="M615.1,853v-90.1h22.1c7.7,0,13.6,1,17.9,2.9,4.3,2,7.3,5,9,9.2,1.8,4.2,2.6,9.6,2.6,16v32.8c0,6.7-.9,12.1-2.6,16.5-1.8,4.3-4.7,7.5-8.9,9.5s-10,3.1-17.5,3.1h-22.5ZM633.5,840.3h3.9c3.4,0,5.8-.5,7.3-1.6s2.4-2.6,2.7-4.7.5-4.7.5-7.8v-37.2c0-3.1-.3-5.7-.7-7.5-.5-1.9-1.5-3.3-2.9-4.2-1.5-.9-3.8-1.4-7-1.4h-3.7v64.5h0Z"/>
        <path class="cls-3" d="M701.2,855.4v-12.9c2.2,0,4,0,5.5-.4,1.5-.3,2.6-.7,3.5-1.5.8-.7,1.4-1.7,1.8-3.1.4-1.4.5-3.1.5-5.2v-69.5h18.3v70.2c0,5-.6,9.1-1.8,12.4s-3.3,5.7-6.3,7.4c-3,1.6-7.2,2.5-12.7,2.5h-8.8Z"/>
        <path class="cls-3" d="M740,853l17.5-90.1h20.3l17.3,90.1h-17.1l-3.2-19.8h-14.2l-3.5,19.8h-17.2ZM762.3,822h10.8l-5.5-36.4-5.3,36.4Z"/>
        <path class="cls-3" d="M804,853l1.6-90.1h19.5l11.1,56.9,11.9-56.9h18.8l1.6,90.1h-13.3l-1.5-61.1-11.5,61.1h-11.5l-12-61.6-1.2,61.6h-13.5Z"/>
      </g>
      <g>
        <path class="cls-1" d="M185.6,902.4c.8,0,1.5,0,2.1-.4.6-.3,1.1-.6,1.6-1.1s.7-1,1-1.7c.2-.6.4-1.4.4-2.2v-11.5h2.6v11.5c0,1.1-.2,2.1-.5,3-.4.9-.8,1.7-1.5,2.5-.6.6-1.5,1.2-2.4,1.6-.9.4-2,.5-3.2.5s-2.2-.2-3.2-.5c-.9-.4-1.7-.9-2.4-1.6-.6-.6-1.2-1.5-1.5-2.5-.4-.9-.5-1.9-.5-3v-11.5h2.6v11.5c0,.8,0,1.6.4,2.2.2.6.5,1.2,1,1.7.5.5.9.8,1.6,1.1.5.3,1.3.4,2.1.4Z"/>
        <path class="cls-1" d="M210,885.6c0,0,.3.2.4.4l10.9,14.3c0-.3,0-.5,0-.6v-14h2.3v19h-1.3c-.2,0-.4,0-.5,0,0,0-.3-.2-.4-.4l-10.9-14.2v14.7h-2.3v-19h1.3c.4,0,.5,0,.6,0Z"/>
        <path class="cls-1" d="M241.2,902.3h8.2v2.2h-10.8v-19h2.6v16.8Z"/>
        <path class="cls-1" d="M274.5,885.5v2.1h-9.1v6.3h7.4v2h-7.4v6.5h9.1v2.1h-11.7v-19h11.7Z"/>
        <path class="cls-1" d="M304.4,904.4h-2c-.3,0-.5,0-.5-.2-.2,0-.3-.3-.3-.5l-1.7-4.6h-8.5l-1.7,4.6c0,.2-.2.3-.3.5-.2,0-.4.2-.5.2h-2l7.6-19h2.6l7.4,19ZM292,897.4h7.1l-3-7.8c-.2-.5-.4-1.1-.5-1.8,0,.4-.2.7-.3,1,0,.3-.2.5-.3.8l-3,7.8Z"/>
        <path class="cls-1" d="M327.1,888.4c0,0-.2.3-.3.3s-.2,0-.4,0-.4,0-.5-.2c-.2-.2-.5-.3-.7-.5s-.6-.4-1.1-.5c-.5-.2-.9-.2-1.6-.2s-1.1,0-1.6.3-.8.4-1.1.6c-.3.3-.5.5-.6.9-.2.4-.2.7-.2,1.2s0,1,.4,1.3.6.6,1,.9c.5.3.9.5,1.5.6s1.1.4,1.6.5c.5.2,1.1.5,1.6.6.5.3,1,.5,1.5.9s.7.8,1,1.4.4,1.2.4,2-.2,1.6-.5,2.4-.7,1.4-1.3,1.9-1.2,1-2,1.3c-.8.3-1.6.5-2.7.5s-2.4-.2-3.4-.6-1.9-1-2.6-1.8l.7-1.2c0,0,.2-.2.3-.3,0,0,.2,0,.4,0s.4,0,.6.3c.3.2.5.5.9.6s.8.5,1.3.6,1.1.3,1.8.3,1.2,0,1.6-.3.9-.4,1.2-.7c.4-.3.5-.6.7-1.1.2-.5.3-.9.3-1.5s0-1-.4-1.4-.6-.6-1-.9-.9-.5-1.5-.6-1.1-.4-1.6-.5c-.5-.2-1.1-.4-1.6-.6-.5-.3-1-.5-1.5-.9s-.7-.8-1-1.5c-.3-.5-.4-1.3-.4-2.1s0-1.3.4-1.9.6-1.2,1.1-1.6,1.1-.9,1.8-1.2,1.6-.5,2.5-.5,2,.2,2.9.5c.9.4,1.6.8,2.3,1.5l-.4,1.1Z"/>
        <path class="cls-1" d="M357.3,904.4h-2.6v-8.7h-10.2v8.7h-2.6v-19h2.6v8.5h10.2v-8.5h2.6v19h0Z"/>
        <path class="cls-1" d="M371.4,902.9c0-.3,0-.5,0-.6s.2-.4.4-.5c.2-.2.3-.3.5-.4.2,0,.5,0,.6,0,.3,0,.5,0,.6,0s.4.2.5.4.3.4.4.5c0,.2,0,.5,0,.6,0,.3,0,.5,0,.6s-.2.4-.4.5c-.2.2-.4.3-.5.4-.2,0-.5,0-.6,0-.3,0-.5,0-.6,0s-.4-.2-.5-.4-.3-.4-.4-.5c0-.2,0-.4,0-.6Z"/>
        <path class="cls-1" d="M420.8,895c0,1.5-.2,2.7-.6,3.8-.5,1.2-1.1,2.2-1.9,3-.8.8-1.8,1.5-2.9,1.9-1.2.5-2.4.6-3.8.6h-7.1v-19h7.1c1.4,0,2.6.2,3.8.6,1.2.5,2.1,1.1,2.9,1.9.8.8,1.5,1.8,1.9,3,.5,1.3.6,2.6.6,4ZM418.2,895c0-1.2-.2-2.2-.5-3.1s-.7-1.7-1.4-2.4c-.5-.6-1.3-1.1-2.1-1.5-.8-.4-1.7-.5-2.7-.5h-4.5v14.8h4.5c1,0,1.9-.2,2.7-.5.8-.4,1.6-.8,2.1-1.5s1-1.4,1.4-2.3c.3-.8.5-1.9.5-3Z"/>
        <path class="cls-1" d="M437.9,904.4h-2.6v-19h2.6v19Z"/>
        <path class="cls-1" d="M463.3,888.4c0,0-.2.3-.3.3s-.2,0-.4,0-.4,0-.5-.2c-.2-.2-.5-.3-.7-.5s-.6-.4-1.1-.5c-.5-.2-.9-.2-1.6-.2s-1.1,0-1.6.3-.8.4-1.1.6c-.3.3-.5.5-.6.9-.2.4-.2.7-.2,1.2s0,1,.4,1.3.6.6,1,.9c.5.3.9.5,1.5.6s1.1.4,1.6.5c.5.2,1.1.5,1.6.6.5.3,1,.5,1.5.9s.7.8,1,1.4.4,1.2.4,2-.2,1.6-.5,2.4-.7,1.4-1.3,1.9-1.2,1-2,1.3c-.8.3-1.6.5-2.7.5s-2.4-.2-3.4-.6-1.9-1-2.6-1.8l.7-1.2c0,0,.2-.2.3-.3,0,0,.2,0,.4,0s.4,0,.6.3c.3.2.5.5.9.6s.8.5,1.3.6,1.1.3,1.8.3,1.2,0,1.6-.3.9-.4,1.2-.7c.4-.3.5-.6.7-1.1.2-.5.3-.9.3-1.5s0-1-.4-1.4-.6-.6-1-.9-.9-.5-1.5-.6-1.1-.4-1.6-.5c-.5-.2-1.1-.4-1.6-.6-.5-.3-1-.5-1.5-.9s-.7-.8-1-1.5c-.3-.5-.4-1.3-.4-2.1s0-1.3.4-1.9.6-1.2,1.1-1.6,1.1-.9,1.8-1.2,1.6-.5,2.5-.5,2,.2,2.9.5c.9.4,1.6.8,2.3,1.5l-.4,1.1Z"/>
        <path class="cls-1" d="M491.5,900.5c.2,0,.3,0,.4.2l1,1.1c-.8.9-1.7,1.6-2.8,2.1s-2.5.7-4,.7-2.6-.3-3.7-.7-2.1-1.1-2.8-2-1.4-1.9-1.8-3.1c-.5-1.2-.6-2.5-.6-3.9s.3-2.7.7-3.9,1.1-2.2,1.9-3.1c.8-.8,1.8-1.6,3-2s2.5-.7,3.8-.7,2.6.2,3.6.6c1,.5,1.9,1,2.7,1.7l-.8,1.2c0,0,0,.2-.2.2,0,0-.2,0-.4,0s-.3,0-.4,0-.3-.2-.5-.3-.4-.3-.6-.4c-.3-.2-.5-.3-.8-.4-.4,0-.7-.2-1.1-.3s-.9,0-1.5,0c-1,0-1.9.2-2.8.5-.8.4-1.6.8-2.2,1.5-.6.6-1.1,1.5-1.5,2.4s-.5,2-.5,3.1.2,2.3.5,3.2.8,1.7,1.4,2.4c.5.6,1.3,1.1,2.1,1.5.8.4,1.6.5,2.6.5s1.1,0,1.6,0,.9-.2,1.3-.3c.4-.2.7-.4,1.1-.5.4-.2.6-.5,1-.7,0-.3.3-.4.4-.4Z"/>
        <path class="cls-1" d="M524.5,895c0,1.5-.2,2.7-.6,3.9s-1.1,2.2-1.9,3.1-1.8,1.6-2.9,2c-1.2.5-2.5.7-3.8.7s-2.6-.3-3.8-.7-2.1-1.1-2.9-2c-.8-.8-1.5-1.9-1.9-3.1-.5-1.2-.6-2.5-.6-3.9s.2-2.7.6-3.9,1.1-2.2,1.9-3.1c.8-.8,1.8-1.6,2.9-2,1.2-.5,2.4-.7,3.8-.7s2.6.3,3.8.7,2.1,1.2,2.9,2,1.5,1.9,1.9,3.1c.4,1.2.6,2.5.6,3.9ZM521.8,895c0-1.2-.2-2.2-.5-3.1s-.7-1.7-1.4-2.4c-.5-.6-1.3-1.1-2.1-1.5s-1.7-.5-2.7-.5-1.9.2-2.7.5c-.8.4-1.6.8-2.1,1.5-.5.6-1,1.5-1.4,2.4-.3.9-.5,2-.5,3.1s.2,2.2.5,3.1.7,1.7,1.4,2.4c.5.6,1.3,1.1,2.1,1.5.8.4,1.7.5,2.7.5s1.9-.2,2.7-.5,1.6-.8,2.1-1.5c.5-.6,1-1.5,1.4-2.4.3-.9.5-2,.5-3.1Z"/>
        <path class="cls-1" d="M535.6,885.5h2c.3,0,.5,0,.5.2.2,0,.3.3.3.5l5.4,13.4c0,.3.3.6.4,1s.2.7.3,1.1c0-.4.2-.7.3-1.1s.2-.6.4-1l5.3-13.4c0-.2.2-.3.3-.5.2,0,.4-.2.5-.2h2.1l-7.8,19h-2.3l-7.7-19Z"/>
        <path class="cls-1" d="M578.1,885.5v2.1h-9.1v6.3h7.4v2h-7.4v6.5h9.1v2.1h-11.7v-19h11.7Z"/>
        <path class="cls-1" d="M595.2,896.5v7.9h-2.6v-19h5.4c1.2,0,2.2,0,3.1.4.9.3,1.6.6,2.2,1.1.5.5,1,1,1.3,1.6.3.6.4,1.4.4,2.2s0,1.3-.3,1.9-.5,1.1-.9,1.6-.9.8-1.5,1.2c-.5.4-1.3.5-2,.7.3.2.6.5.8.8l5.6,7.6h-2.3c-.5,0-.8-.2-1-.5l-4.9-6.7c-.2-.2-.3-.4-.5-.5s-.5-.2-.8-.2h-2ZM595.2,894.6h2.6c.7,0,1.4,0,2-.3s1-.5,1.5-.7c.4-.4.6-.7.8-1.2s.3-1,.3-1.6c0-1.1-.4-2-1.1-2.6s-1.8-.8-3.3-.8h-2.8v7.1h0Z"/>
        <path class="cls-1" d="M618.9,902.9c0-.3,0-.5,0-.6s.2-.4.4-.5c.2-.2.3-.3.5-.4.2,0,.5,0,.6,0s.5,0,.6,0,.4.2.5.4c.2.2.3.4.4.5,0,.2,0,.5,0,.6,0,.3,0,.5,0,.6s-.2.4-.4.5c-.2.2-.4.3-.5.4s-.5,0-.6,0-.5,0-.6,0-.4-.2-.5-.4c-.2-.2-.3-.4-.4-.5,0-.2,0-.4,0-.6Z"/>
        <path class="cls-1" d="M663.5,885.5v2.1h-9.1v6.3h7.4v2h-7.4v6.5h9.1v2.1h-11.7v-19h11.7Z"/>
        <path class="cls-1" d="M675.6,885.5h2c.3,0,.5,0,.5.2s.3.3.3.5l5.4,13.4c0,.3.3.6.4,1s.2.7.3,1.1c0-.4.2-.7.3-1.1s.2-.6.4-1l5.3-13.4c0-.2.2-.3.3-.5.2,0,.4-.2.5-.2h2.1l-7.8,19h-2.3l-7.7-19Z"/>
        <path class="cls-1" d="M723.3,895c0,1.5-.2,2.7-.6,3.9s-1.1,2.2-1.9,3.1c-.8.8-1.8,1.6-2.9,2-1.2.5-2.5.7-3.8.7s-2.6-.3-3.8-.7-2.1-1.1-2.9-2-1.5-1.9-1.9-3.1c-.5-1.2-.6-2.5-.6-3.9s.2-2.7.6-3.9,1.1-2.2,1.9-3.1c.8-.8,1.8-1.6,2.9-2,1.2-.5,2.5-.7,3.8-.7s2.6.3,3.8.7,2.1,1.2,2.9,2,1.5,1.9,1.9,3.1c.4,1.2.6,2.5.6,3.9ZM720.6,895c0-1.2-.2-2.2-.5-3.1s-.7-1.7-1.4-2.4c-.5-.6-1.3-1.1-2.1-1.5-.8-.4-1.7-.5-2.7-.5s-1.9.2-2.7.5-1.6.8-2.1,1.5c-.5.6-1,1.5-1.4,2.4-.3.9-.5,2-.5,3.1s.2,2.2.5,3.1.7,1.7,1.4,2.4c.5.6,1.3,1.1,2.1,1.5s1.7.5,2.7.5,1.9-.2,2.7-.5c.8-.4,1.6-.8,2.1-1.5.5-.6,1-1.5,1.4-2.4.3-.9.5-2,.5-3.1Z"/>
        <path class="cls-1" d="M739.9,902.3h8.2v2.2h-10.8v-19h2.6v16.8Z"/>
        <path class="cls-1" d="M756.9,885.5h2c.3,0,.5,0,.5.2s.3.3.3.5l5.4,13.4c0,.3.3.6.4,1s.2.7.3,1.1c0-.4.2-.7.3-1.1s.2-.6.4-1l5.3-13.4c0-.2.2-.3.3-.5.2,0,.4-.2.5-.2h2.1l-7.8,19h-2.3l-7.7-19Z"/>
        <path class="cls-1" d="M799.3,885.5v2.1h-9.1v6.3h7.4v2h-7.4v6.5h9.1v2.1h-11.7v-19h11.7Z"/>
        <path class="cls-1" d="M812.5,902.9c0-.3,0-.5,0-.6s.2-.4.4-.5c.2-.2.3-.3.5-.4.2,0,.5,0,.6,0s.5,0,.6,0,.4.2.5.4c.2.2.3.4.4.5,0,.2,0,.5,0,.6,0,.3,0,.5,0,.6s-.2.4-.4.5c-.2.2-.4.3-.5.4-.2,0-.5,0-.6,0-.3,0-.5,0-.6,0s-.4-.2-.5-.4c-.2-.2-.3-.4-.4-.5,0-.2,0-.4,0-.6Z"/>
      </g>
      <text class="cls-5" transform="translate(348.9 153.9)"><tspan x="0" y="0">Made for</tspan></text>
    </g>
  </g>
</svg>